<?xml version="1.0" encoding="utf-8"?>
<!-- Generator: Adobe Illustrator 25.0.1, SVG Export Plug-In . SVG Version: 6.00 Build 0)  -->
<svg version="1.1" id="Capa_1" xmlns="http://www.w3.org/2000/svg" xmlns:xlink="http://www.w3.org/1999/xlink" x="0px" y="0px"
	 viewBox="0 0 60 60" style="enable-background:new 0 0 60 60;" xml:space="preserve">
<g>
	<path d="M13.36,42.84c-0.82,0.24-1.67,0.41-2.46,0.73c-2.89,1.16-5.35,0.16-6.55-2.71c-0.3-0.72-0.62-1.44-0.79-2.19
		c-0.49-2.17,0.63-4.32,2.67-5.31c0.73-0.36,1.5-0.7,2.15-1.18c2.04-1.53,2.03-3.7-0.01-5.24c-0.53-0.4-1.14-0.7-1.74-0.99
		c-2.45-1.17-3.46-3.71-2.45-6.25c0.24-0.6,0.5-1.2,0.79-1.78c1.1-2.24,3.48-3.19,5.84-2.4c0.85,0.28,1.74,0.56,2.63,0.61
		c2.14,0.11,3.45-1.39,3.16-3.53c-0.09-0.68-0.28-1.35-0.5-2.01c-0.83-2.57,0.22-5,2.7-6.03c0.95-0.39,1.94-0.79,2.94-0.92
		c2-0.26,3.71,0.8,4.67,2.6c0.41,0.77,0.87,1.57,1.46,2.2c1.28,1.36,2.99,1.34,4.28-0.02c0.54-0.57,0.97-1.27,1.33-1.97
		c1.26-2.47,3.66-3.45,6.25-2.49c0.53,0.2,1.05,0.4,1.56,0.63c2.34,1.03,3.43,3.46,2.63,5.91c-0.36,1.11-0.73,2.22-0.45,3.42
		c0.29,1.26,1.19,2.16,2.48,2.17c0.93,0.01,1.93-0.07,2.78-0.43c2.56-1.07,5.43-0.07,6.56,2.75c0.42,1.04,0.97,2.03,0.93,3.21
		c-0.07,1.92-0.95,3.32-2.64,4.23c-0.79,0.43-1.63,0.83-2.3,1.41c-1.59,1.39-1.59,3.19-0.02,4.6c0.58,0.52,1.29,0.97,2.02,1.26
		c2.52,0.98,4.11,3.79,2.82,6.64c-0.21,0.47-0.37,0.97-0.58,1.44c-1.08,2.45-3.55,3.43-6.09,2.53c-1-0.36-2.07-0.66-3.12-0.7
		c-1.78-0.07-2.97,1.14-2.9,2.93c0.04,1.01,0.34,2.04,0.7,3c0.56,1.53,0.53,2.96-0.18,4.45c-0.81,1.72-4.9,3.48-6.72,2.96
		c-1.63-0.46-2.76-1.43-3.44-2.99c-0.33-0.75-0.67-1.51-1.16-2.16c-1.51-2.01-3.67-2.02-5.2-0.03c-0.47,0.61-0.82,1.32-1.12,2.04
		c-1.17,2.81-3.75,3.91-6.57,2.76c-0.46-0.19-0.91-0.39-1.36-0.6c-2.52-1.17-3.52-3.75-2.49-6.34c0.31-0.8,0.6-1.63,0.72-2.48
		C16.9,44.36,15.58,42.93,13.36,42.84z M13.4,40.59c0.01,0.05,0.03,0.11,0.04,0.16c3.53-0.01,5.84,2.63,5.31,6.13
		c-0.15,0.99-0.47,1.97-0.82,2.92c-0.59,1.59-0.12,2.9,1.41,3.59c0.37,0.17,0.75,0.34,1.13,0.49c1.82,0.74,3.08,0.19,3.81-1.66
		c0.51-1.29,1.21-2.44,2.25-3.36c2.03-1.82,4.78-1.87,6.82-0.06c0.57,0.51,1.07,1.13,1.5,1.77c0.4,0.61,0.67,1.3,0.97,1.97
		c0.63,1.43,1.96,2.01,3.41,1.44c0.44-0.17,0.88-0.36,1.31-0.56c1.65-0.74,2.12-2.03,1.48-3.72c-0.35-0.92-0.65-1.89-0.8-2.86
		c-0.46-3.02,1.3-5.53,4.18-6.02c1.58-0.27,3.1,0.03,4.55,0.68c0.78,0.35,1.57,0.45,2.38,0.07c1.26-0.61,2.37-3.63,1.8-4.91
		c-0.33-0.74-0.96-1.11-1.63-1.49c-1.03-0.58-2.11-1.14-2.95-1.94c-2.28-2.18-2.25-5.29,0.05-7.46c0.82-0.77,1.85-1.33,2.85-1.86
		c1.32-0.71,1.88-1.97,1.34-3.37c-0.18-0.46-0.38-0.92-0.59-1.37c-0.76-1.62-1.92-2.1-3.6-1.45c-1.23,0.47-2.49,0.7-3.81,0.59
		c-2.31-0.19-4.12-1.84-4.53-4.14c-0.26-1.46,0-2.84,0.49-4.2c0.56-1.55,0.01-2.8-1.49-3.44c-0.4-0.17-0.8-0.33-1.2-0.48
		c-1.65-0.62-2.81-0.1-3.65,1.43c-0.56,1-1.23,2.01-2.06,2.79c-1.95,1.83-4.67,1.78-6.71,0.05C25.67,9.5,25,8.45,24.45,7.3
		c-0.62-1.29-1.9-1.81-3.25-1.34c-0.51,0.18-1.01,0.38-1.5,0.6c-1.47,0.63-1.98,1.86-1.49,3.39c0.24,0.76,0.46,1.54,0.57,2.32
		c0.48,3.45-1.85,6.15-5.32,6.04c-1.12-0.03-2.24-0.38-3.33-0.7c-1.37-0.41-2.58,0.02-3.2,1.3c-0.26,0.54-0.51,1.1-0.73,1.66
		c-0.53,1.38,0.03,2.68,1.37,3.34c0.75,0.37,1.51,0.76,2.18,1.27c3.14,2.41,3.16,6.28,0.02,8.69c-0.76,0.58-1.66,1-2.52,1.43
		c-1.36,0.67-1.9,1.91-1.38,3.34c0.15,0.41,0.3,0.81,0.47,1.21c0.82,1.95,1.89,2.35,3.85,1.62C11.22,41.08,12.33,40.88,13.4,40.59z"
		/>
	<path d="M29.98,45.32c-8.42-0.01-15.3-6.93-15.27-15.36c0.03-8.41,6.91-15.28,15.3-15.27c8.42,0.01,15.31,6.94,15.27,15.37
		C45.25,38.47,38.37,45.33,29.98,45.32z M39.46,38.96c4.76-4.92,4.99-13.24-0.5-18.47c-5.32-5.07-13.91-4.67-18.74,0.84
		c-5.02,5.73-3.79,13.66,0.33,17.6C25.43,32.99,34.5,32.95,39.46,38.96z M37.75,40.46c-3.82-5.04-11.89-5.02-15.48,0
		C26.57,43.93,33.3,43.99,37.75,40.46z"/>
	<path d="M29.96,21.01c3.13-0.01,5.65,2.48,5.69,5.62c0.03,3.09-2.52,5.68-5.62,5.7c-3.1,0.02-5.66-2.51-5.69-5.63
		C24.31,23.59,26.84,21.02,29.96,21.01z M33.43,26.67c0-1.89-1.51-3.43-3.4-3.44c-1.93-0.01-3.47,1.51-3.48,3.43
		c0,1.88,1.53,3.43,3.4,3.46C31.85,30.14,33.43,28.57,33.43,26.67z"/>
</g>
</svg>
